<svg width="174" height="102" viewBox="0 0 174 102" fill="none" xmlns="http://www.w3.org/2000/svg">
<path d="M54.7222 99.4113H41.2198C37.1184 99.4113 33.7935 96.0863 33.7935 91.985V9.95801C33.7935 5.85666 37.1184 2.5317 41.2198 2.5317H54.7222C58.8235 2.5317 62.1485 5.85666 62.1485 9.95801V91.985C62.1485 96.0863 58.8235 99.4113 54.7222 99.4113Z" fill="#546E7A"/>
<path d="M54.7221 2.5317H44.5953C48.6967 2.5317 52.0216 5.85666 52.0216 9.95801V91.985C52.0216 96.0863 48.6967 99.4113 44.5953 99.4113H54.7221C58.8235 99.4113 62.1484 96.0863 62.1484 91.985V9.95801C62.1484 5.85666 58.8235 2.5317 54.7221 2.5317Z" fill="#455A64"/>
<path d="M29.0675 88.7782H18.2656C15.6556 88.7782 13.5398 86.6624 13.5398 84.0523V17.8907C13.5398 15.2806 15.6556 13.1648 18.2656 13.1648H29.0675C31.6775 13.1648 33.7934 15.2806 33.7934 17.8907V84.0523C33.7934 86.6624 31.6775 88.7782 29.0675 88.7782Z" fill="#546E7A"/>
<path d="M29.0676 13.1648H18.9408C21.5508 13.1648 23.6666 15.2806 23.6666 17.8907V84.0523C23.6666 86.6624 21.5508 88.7782 18.9408 88.7782H29.0676C31.6776 88.7782 33.7934 86.6624 33.7934 84.0523V17.8907C33.7934 15.2806 31.6776 13.1648 29.0676 13.1648Z" fill="#455A64"/>
<path d="M13.5399 64.4739H6.78868C4.92434 64.4739 3.41309 62.9626 3.41309 61.0983V40.8447C3.41309 38.9804 4.92434 37.4691 6.78868 37.4691H13.5399V64.4739Z" fill="#FFD54F"/>
<path d="M62.1484 42.2932H112.445V59.6498H62.1484V42.2932Z" fill="#E0E0E0"/>
<path d="M102.318 42.2932H112.445V59.6498H102.318V42.2932Z" fill="#BDBDBD"/>
<path d="M133.374 99.4113H119.871C115.77 99.4113 112.445 96.0863 112.445 91.985V9.95801C112.445 5.85666 115.77 2.5317 119.871 2.5317H133.374C137.475 2.5317 140.8 5.85666 140.8 9.95801V91.985C140.8 96.0863 137.475 99.4113 133.374 99.4113Z" fill="#546E7A"/>
<path d="M133.373 2.5317H123.247C127.348 2.5317 130.673 5.85666 130.673 9.95801V91.985C130.673 96.0863 127.348 99.4113 123.247 99.4113H133.373C137.475 99.4113 140.8 96.0863 140.8 91.985V9.95801C140.8 5.85666 137.475 2.5317 133.373 2.5317Z" fill="#455A64"/>
<path d="M156.328 88.7782H145.526C142.916 88.7782 140.8 86.6624 140.8 84.0523V17.8907C140.8 15.2806 142.916 13.1648 145.526 13.1648H156.328C158.938 13.1648 161.053 15.2806 161.053 17.8907V84.0523C161.053 86.6624 158.938 88.7782 156.328 88.7782Z" fill="#546E7A"/>
<path d="M156.328 13.1648H146.201C148.811 13.1648 150.927 15.2806 150.927 17.8907V84.0523C150.927 86.6624 148.811 88.7782 146.201 88.7782H156.328C158.938 88.7782 161.053 86.6624 161.053 84.0523V17.8907C161.053 15.2806 158.938 13.1648 156.328 13.1648Z" fill="#455A64"/>
<path d="M167.805 64.4739H161.053V37.4691H167.805C169.669 37.4691 171.18 38.9804 171.18 40.8447V61.0983C171.18 62.9626 169.669 64.4739 167.805 64.4739Z" fill="#FFD54F"/>
<path d="M167.805 34.9374H163.585V17.8907C163.585 13.8889 160.329 10.6331 156.328 10.6331H145.526C144.761 10.6331 144.024 10.7536 143.331 10.9741V9.95801C143.331 4.46726 138.864 0 133.373 0L119.871 0C114.38 0 109.913 4.46726 109.913 9.95801V39.7615H64.6801V9.95801C64.6801 4.46726 60.2128 0 54.7221 0L41.2197 0C35.729 0 31.2617 4.46726 31.2617 9.95801V10.9741C30.569 10.7536 29.8321 10.6331 29.0676 10.6331H18.2657C14.2639 10.6331 11.0081 13.8889 11.0081 17.8907V21.1606C11.0081 22.5588 12.1417 23.6923 13.5398 23.6923C14.938 23.6923 16.0715 22.5588 16.0715 21.1606V17.8907C16.0715 16.6808 17.0559 15.6965 18.2657 15.6965H29.0676C30.2774 15.6965 31.2617 16.6808 31.2617 17.8907V84.0523C31.2617 85.2622 30.2774 86.2465 29.0676 86.2465H18.2657C17.0559 86.2465 16.0715 85.2622 16.0715 84.0523V31.9936C16.0715 30.5954 14.938 29.4619 13.5398 29.4619C12.1417 29.4619 11.0081 30.5954 11.0081 31.9936V34.9374H6.78864C3.53153 34.9374 0.881348 37.5876 0.881348 40.8447V61.0983C0.881348 64.3554 3.53153 67.0056 6.78864 67.0056H11.0081V84.0523C11.0081 88.0541 14.2639 91.3099 18.2657 91.3099H29.0676C29.8321 91.3099 30.569 91.1894 31.2617 90.9689V91.985C31.2617 97.4757 35.729 101.943 41.2197 101.943H54.7221C60.2128 101.943 64.6801 97.4757 64.6801 91.985V62.1815H68.3649C69.7631 62.1815 70.8966 61.048 70.8966 59.6498C70.8966 58.2517 69.7631 57.1181 68.3649 57.1181H64.6801V44.8249H109.913V57.1181H79.3396C77.9415 57.1181 76.8079 58.2517 76.8079 59.6498C76.8079 61.048 77.9415 62.1815 79.3396 62.1815H109.913V91.985C109.913 97.4757 114.38 101.943 119.871 101.943H133.373C138.864 101.943 143.331 97.4757 143.331 91.985V90.9689C144.024 91.1894 144.761 91.3099 145.526 91.3099H156.328C160.329 91.3099 163.585 88.0541 163.585 84.0523V80.6335C163.585 79.2354 162.452 78.1018 161.053 78.1018C159.655 78.1018 158.522 79.2354 158.522 80.6335V84.0523C158.522 85.2622 157.537 86.2465 156.328 86.2465H145.526C144.316 86.2465 143.331 85.2622 143.331 84.0523V17.8907C143.331 16.6808 144.316 15.6965 145.526 15.6965H156.328C157.537 15.6965 158.522 16.6808 158.522 17.8907V69.7061C158.522 71.1042 159.655 72.2378 161.053 72.2378C162.452 72.2378 163.585 71.1042 163.585 69.7061V67.0056H167.805C171.062 67.0056 173.712 64.3554 173.712 61.0983V40.8447C173.712 37.5876 171.062 34.9374 167.805 34.9374ZM6.78864 61.9422C6.32348 61.9422 5.94474 61.5634 5.94474 61.0983V40.8447C5.94474 40.3796 6.32348 40.0008 6.78864 40.0008H11.0081V61.9422H6.78864ZM59.6167 91.985C59.6167 94.6838 57.4209 96.8796 54.7221 96.8796H41.2197C38.5209 96.8796 36.3251 94.6838 36.3251 91.985V9.95801C36.3251 7.25922 38.5209 5.06339 41.2197 5.06339H54.7221C57.4209 5.06339 59.6167 7.25922 59.6167 9.95801V91.985ZM138.268 91.985C138.268 94.6838 136.072 96.8796 133.373 96.8796H119.871C117.172 96.8796 114.976 94.6838 114.976 91.985V9.95801C114.976 7.25922 117.172 5.06339 119.871 5.06339H133.373C136.072 5.06339 138.268 7.25922 138.268 9.95801V91.985ZM168.648 61.0983C168.648 61.5634 168.27 61.9422 167.805 61.9422H163.585V40.0008H167.805C168.27 40.0008 168.648 40.3796 168.648 40.8447V61.0983Z" fill="black"/>
</svg>
