<svg width="139" height="139" viewBox="0 0 139 139" fill="none" xmlns="http://www.w3.org/2000/svg">
<path fill-rule="evenodd" clip-rule="evenodd" d="M139 69.6001C139 31.3333 107.973 0.306641 69.7065 0.306641C31.4398 0.306641 0.413086 31.3333 0.413086 69.6001C0.413086 104.183 25.7491 132.852 58.8805 138.056V89.635H41.2817V69.6001H58.8805V54.3303C58.8805 36.9653 69.2291 27.3669 85.0542 27.3669C92.6353 27.3669 100.568 28.7214 100.568 28.7214V45.7746H91.8264C83.2223 45.7746 80.5326 51.1146 80.5326 56.6007V69.5996H99.7485L96.6789 89.6345H80.532V138.055C113.663 132.861 138.999 104.192 138.999 69.5996L139 69.6001Z" fill="#1977F3"/>
<path fill-rule="evenodd" clip-rule="evenodd" d="M96.6805 89.635L99.7501 69.6001H80.5341V56.6011C80.5341 51.1247 83.2137 45.7751 91.828 45.7751H100.569V28.7219C100.569 28.7219 92.6373 27.3674 85.0557 27.3674C69.2307 27.3674 58.882 36.9562 58.882 54.3307V69.6006H41.2832V89.6355H58.882V138.056C62.4094 138.611 66.0246 138.894 69.7081 138.894C73.3915 138.894 77.0068 138.602 80.5341 138.056V89.6355H96.681L96.6805 89.635Z" fill="#FEFEFE"/>
</svg>
