<svg width="192" height="192" viewBox="0 0 192 192" fill="none" xmlns="http://www.w3.org/2000/svg">
<g clip-path="url(#clip0)">
<path d="M42.5513 116.028L35.868 140.978L11.4409 141.494C4.14075 127.954 0 112.463 0 96.0001C0 80.081 3.8715 65.069 10.734 51.8506H10.7393L32.4863 55.8376L42.0128 77.4541C40.0189 83.267 38.9321 89.5069 38.9321 96.0001C38.9329 103.047 40.2094 109.799 42.5513 116.028Z" fill="#FBBB00"/>
<path d="M190.323 78.0662C191.425 83.8734 192 89.8708 192 96.0002C192 102.873 191.278 109.577 189.901 116.044C185.228 138.05 173.017 157.266 156.101 170.864L156.096 170.859L128.704 169.462L124.827 145.261C136.052 138.678 144.824 128.377 149.445 116.044H98.1108V78.0662H150.193H190.323Z" fill="#518EF8"/>
<path d="M156.096 170.86L156.102 170.865C139.65 184.089 118.751 192.001 96.0015 192.001C59.4424 192.001 27.657 171.567 11.4424 141.496L42.5528 116.029C50.6599 137.666 71.532 153.068 96.0015 153.068C106.519 153.068 116.373 150.225 124.828 145.262L156.096 170.86Z" fill="#28B446"/>
<path d="M157.274 22.101L126.175 47.562C117.424 42.0923 107.08 38.9325 95.9979 38.9325C70.9746 38.9325 49.7121 55.0414 42.0111 77.454L10.7372 51.8505H10.7319C26.7092 21.0461 58.8954 0 95.9979 0C119.291 0 140.648 8.29725 157.274 22.101Z" fill="#F14336"/>
</g>
<defs>
<clipPath id="clip0">
<rect width="192" height="192" fill="white"/>
</clipPath>
</defs>
</svg>
