<svg width="360" height="326" viewBox="0 0 360 326" fill="none" xmlns="http://www.w3.org/2000/svg">
<path d="M153.595 271.486C243.562 279.183 320.807 235.125 326.111 173.081C327.444 157.552 324.139 142.367 317.029 128.207C340.814 122.892 358.277 108.155 359.882 89.4503C362.065 63.892 333.791 40.6017 296.733 37.4316C269.153 35.0724 244.482 44.5135 232.761 60.0284C214.464 53.2393 194.239 48.6349 172.813 46.8017C82.8373 39.1052 5.6006 83.1626 0.287831 145.207C-5.01617 207.252 63.6202 263.79 153.595 271.486Z" fill="#E2F0FF"/>
<path d="M292.624 17.9899C292.624 24.7544 285.793 30.2344 277.368 30.2344C268.936 30.2344 262.104 24.7544 262.104 17.9899C262.104 11.2254 268.936 5.74544 277.368 5.74544C285.793 5.74544 292.624 11.2254 292.624 17.9899Z" fill="#E2F0FF"/>
<path d="M250.877 8.99844C250.877 13.9625 246.851 17.9888 241.887 17.9888C236.923 17.9888 232.896 13.9625 232.896 8.99844C232.896 4.02628 236.923 6.10352e-05 241.887 6.10352e-05C246.851 6.10352e-05 250.877 4.02628 250.877 8.99844Z" fill="#E2F0FF"/>
<path d="M185.902 324L40 239.408L49.3662 234.013L70.8671 246.412L154.198 198.075L163.59 203.522L80.5062 251.988L193 316.883L185.902 324ZM172.966 198.053L163.579 192.635L171.568 188L180.911 193.417L172.966 198.053Z" fill="#DAE3E8"/>
<path d="M281.954 272L248.437 252.656C248.802 250.661 250.767 245.777 251.697 243.531L289 264.955L281.954 272ZM236.595 245.822L231.337 242.787C232.264 243.078 233.047 243.381 233.614 243.708C234.721 244.345 235.756 244.932 236.764 245.423C236.71 245.548 236.654 245.683 236.595 245.822ZM197.77 221.585C197.047 221.585 196.305 221.513 195.549 221.363C194.795 221.208 194.089 221.058 193.43 220.91L163.824 203.823L173.138 198.415L206.945 217.83C204.45 219.89 201.32 221.585 197.77 221.585ZM154.493 198.437L137 188.341L146.301 183L163.812 193.058L154.493 198.437Z" fill="#DAE3E8"/>
<path d="M163.508 204L154 198.497L163.497 193L173 198.474L163.508 204Z" fill="#BACAD3"/>
<path d="M229.711 308C221.102 308 212.475 306.131 205.887 302.394C194.592 295.988 192.968 286.185 201.048 278.861C201.617 280.482 202.514 283.298 203.154 285.303C203.6 286.669 203.898 287.643 203.898 287.643C203.898 287.643 203.9 287.649 203.902 287.658C203.459 287.109 203.222 286.33 202.912 285.691C202.837 285.537 202.747 285.47 202.648 285.47C202.021 285.47 201.005 288.149 201.005 289.348C201.005 290.737 200.451 290.833 201.005 291.686C201.248 292.065 201.719 292.673 202.383 293.293C203.208 294.066 204.332 294.87 205.691 295.301C207.01 295.718 208.863 297.81 210.46 299.746C211.829 301.411 213.009 302.959 213.496 303.235C213.722 303.363 215.071 303.66 215.788 304.028C217.459 304.881 220.05 305.678 222.376 305.68C223.77 305.68 225.067 305.392 226.014 304.658C227.966 303.144 226.272 301.396 225.036 299.411C224.479 298.513 223.913 297.786 223.626 297.435L223.432 297.203L219.425 293.628C218.911 293.338 215.992 290.911 213.775 289.049L213.437 288.763C212.168 287.698 211.203 286.879 211.203 286.879C211.203 286.879 211.2 286.883 211.195 286.892C211.195 286.89 211.196 286.888 211.196 286.888C211.196 286.888 209.929 283.72 210.376 281.597C210.823 279.451 212.66 276.062 213.429 272.527C213.448 272.431 213.468 272.34 213.489 272.248C218.401 270.748 223.842 270 229.291 270C230.938 270 232.586 270.069 234.221 270.205C233.76 271.027 233.364 272.11 233.548 273.244C234.101 276.66 239.188 278.759 240.585 279.304C241.98 279.846 245.523 284.816 246.728 285.499C247.801 286.109 251.88 288.422 256.057 288.422C256.567 288.422 257.076 288.388 257.582 288.312C259.726 287.991 260.255 286.444 260.035 284.771C260.087 283.378 259.317 281.768 258.528 280.502C257.971 279.603 257.405 278.877 257.117 278.524L256.926 278.292L255.998 277.466C266.164 284.934 265.267 295.669 253.262 302.476C246.769 306.16 238.249 308 229.711 308Z" fill="#DAE3E8"/>
<path d="M251.978 242.755C251.685 243.436 248.245 251.677 248.245 253.481C248.245 255.334 248.438 257.408 247.421 259.674C246.378 261.943 246.791 262.356 245.36 265.671C243.906 268.989 243.906 272.72 243.906 272.72C243.906 272.72 242.379 275.718 240.271 274.838C238.138 273.961 236.902 269.817 236.902 269.817C236.902 269.817 236.83 269.183 236.708 268.257C236.393 266.062 235.787 262.26 235.06 261.527C234.019 260.503 233 259.48 233 256.993C233 255.091 235.593 248.629 236.806 245.754C237.145 244.876 237.387 244.34 237.387 244.34L239.277 243.559L247.881 240L252 242.706L251.978 242.755Z" fill="#CE876E"/>
<path d="M278 129.495C278 127.965 276.897 126.1 275.537 125.331C274.824 124.926 274.182 124.906 273.733 125.198L253 137.228L253.5 138.018C253.498 139.612 254.598 141.477 255.96 142.249L256.279 142.404L256.657 143L277.17 131.098L277.39 130.972C277.775 130.689 278 130.185 278 129.495Z" fill="#3D3F5D"/>
<path d="M257 142.072C257 143.8 255.882 144.495 254.499 143.625C253.118 142.757 252 140.655 252 138.927C252 137.202 253.118 136.505 254.499 137.375C255.882 138.242 257 140.348 257 142.072Z" fill="#2A2C4C"/>
<path d="M277 146.177C277 136.244 270.087 124.14 261.56 119.141C257.084 116.517 253.063 116.393 250.244 118.286L243 122.532L246.139 127.655L246.118 128.077C246.118 138.011 253.031 150.117 261.56 155.114C262.241 155.513 262.907 155.835 263.565 156.122L265.941 160L271.798 156.566C272.289 156.347 272.75 156.076 273.182 155.755C275.588 153.908 277 150.652 277 146.177Z" fill="#191B3E"/>
<path d="M270 149.987C270 159.852 263.06 163.826 254.5 158.862C245.939 153.9 239 141.877 239 132.013C239 122.148 245.939 118.174 254.5 123.138C263.06 128.102 270 140.123 270 149.987Z" fill="#363857"/>
<path d="M268 148.638C268 157.024 261.958 160.403 254.501 156.182C247.044 151.964 241 141.746 241 133.361C241 124.975 247.044 121.599 254.501 125.817C261.958 130.035 268 140.253 268 148.638Z" fill="#EB5254"/>
<path d="M258 143.246C258 145.711 256.435 146.706 254.501 145.466C252.567 144.224 251 141.219 251 138.753C251 136.288 252.567 135.293 254.501 136.535C256.435 137.775 258 140.78 258 143.246Z" fill="#0D0F34"/>
<path d="M235 38.8189L236.895 38.7568L237.318 36.0765L238.421 36L239 40.7325L236.007 45L235 38.8189Z" fill="#0D0F34"/>
<path d="M237 51.1313L238.42 51.0648L238.737 48.0872L239.564 48L240 53.2594L237.755 58L237 51.1313Z" fill="#0D0F34"/>
<path d="M238 63.1297L239.895 63.0632L240.319 60.0849L241.421 60L242 65.2583L239.006 70L238 63.1297Z" fill="#0D0F34"/>
<path d="M240 75.8167L241.42 75.7568L241.738 73.0764L242.564 73L243 77.7325L240.754 82L240 75.8167Z" fill="#0D0F34"/>
<path d="M241 88.132L242.895 88.0654L243.319 85.0872L244.421 85L245 90.2606L242.007 95L241 88.132Z" fill="#0D0F34"/>
<path d="M243 100.13L244.893 100.064L245.317 97.085L246.419 97L247 102.26L244.005 107L243 100.13Z" fill="#0D0F34"/>
<path d="M245 112.817L246.42 112.757L246.739 110.076L247.566 110L248 114.733L245.754 119L245 112.817Z" fill="#0D0F34"/>
<path d="M246 125.132L247.893 125.065L248.317 122.087L249.419 122L250 127.261L247.005 132L246 125.132Z" fill="#0D0F34"/>
<path d="M248 137.132L249.894 137.065L250.318 134.085L251.421 134L252 139.261L249.006 144L248 137.132Z" fill="#0D0F34"/>
<path d="M250 149.817L251.42 149.757L251.738 147.077L252.564 147L253 151.734L250.754 156L250 149.817Z" fill="#0D0F34"/>
<path d="M251 162.132L252.894 162.065L253.318 159.085L254.421 159L255 164.261L252.006 169L251 162.132Z" fill="#0D0F34"/>
<path d="M253 174.132L254.42 174.063L254.738 171.087L255.564 171L256 176.261L253.754 181L253 174.132Z" fill="#0D0F34"/>
<path d="M254 186.132L255.894 186.065L256.318 183.085L257.421 183L258 188.261L255.006 193L254 186.132Z" fill="#0D0F34"/>
<path d="M256.038 203.868C254.754 203.383 253.542 201.723 253.326 200.159L230.033 32.0909C229.817 30.5264 230.682 29.6502 231.963 30.1324C233.245 30.617 234.458 32.2743 234.674 33.8411L257.967 201.907C258.182 203.474 257.319 204.35 256.038 203.868Z" fill="#0D0F34"/>
<path d="M130 184.574L135.931 181.165L153.483 176.231C154.881 175.837 156.526 175.949 158.242 176.554L264.944 216.169C269.546 217.865 274.188 221.708 278.016 226.985C281.843 232.264 284.373 238.319 285.142 244.037L288 268.59L282.068 272L277.424 249.554C276.827 245.178 276.969 239.565 274.039 235.527C271.103 231.475 267.626 225.553 264.091 224.251L151.034 181.51C149.917 181.118 130 184.574 130 184.574Z" fill="#0D0F34"/>
<path d="M258 215.563L252.082 219L223 15.4376L228.917 12L258 215.563Z" fill="#313352"/>
<path d="M170.435 183L165 182.124L187.82 14.1367C188.403 10.4924 193.865 9.78166 196.497 8.25125C199.14 6.71175 202.502 6.58919 205.966 7.90388L222 13.987L220.545 18.7439L204.02 13.0764C202.685 12.5677 200.774 12.15 199.256 13.0332C197.752 13.9097 197.171 15.758 196.947 17.1568L170.435 183Z" fill="#0D0F34"/>
<path d="M136.371 187.867L130 184.185L147.542 179.231C148.941 178.837 150.586 178.948 152.3 179.555L258.954 219.346C263.554 221.05 268.196 224.908 272.02 230.21C275.844 235.513 278.374 241.595 279.143 247.336L282 272L278.003 269.693L275.162 245.763C274.566 241.365 272.625 236.713 269.699 232.655C266.764 228.585 263.201 225.623 259.667 224.316L153.056 184.541C151.94 184.147 150.871 184.075 149.961 184.331L136.371 187.867Z" fill="#6E718E"/>
<path d="M252 219L246.779 216.964L218 14L223.22 16.0336L252 219Z" fill="#6E718E"/>
<path d="M164.381 186L159 185.128L185.247 20.2255C185.824 16.6018 187.576 13.7661 190.182 12.2421C192.797 10.7137 196.126 10.5917 199.554 11.899L223 20.8351L221.074 25.976L197.628 17.0422C196.306 16.5364 194.416 16.1209 192.914 16.9992C191.424 17.8707 190.848 19.7085 190.626 21.097L164.381 186Z" fill="#6E718E"/>
<path d="M215.863 265.339L215.791 265.656C215.029 268.41 213.836 268.776 213.12 272.334C212.381 275.867 210.616 279.256 210.187 281.401C209.757 283.523 210.974 286.69 210.974 286.69C210.974 286.69 210.116 292.565 207.658 291.956C205.201 291.322 203.961 287.445 203.961 287.445C203.961 287.445 203.675 286.472 203.246 285.106C202.506 282.693 201.409 279.11 200.932 277.843C200.216 275.867 199 274.113 199 271.993C199 270.336 200.98 266.924 201.815 265.558C202.053 265.167 202.196 264.948 202.196 264.948L206.537 263.609L215.029 261C215.029 261 216.435 262.754 215.863 265.339Z" fill="#CE876E"/>
<path d="M251.743 242.184C250.629 243.909 245.127 247.188 242.07 246.992C241.732 246.967 241.393 246.917 241.053 246.867C239.476 246.621 238.022 246.03 236.543 245.266C235.549 244.772 234.53 244.18 233.439 243.539C230.433 241.764 221.269 240.703 217.146 238.411C214.383 236.857 209.873 234.836 207.206 233.676C205.873 233.109 205 232.741 205 232.741L212.419 212C212.419 212 212.612 212.099 213.146 212.273L213.364 212.345C214.285 212.691 216.007 213.26 218.989 214.098C221.244 214.739 225.074 216.268 229.221 218.338C229.584 218.51 229.778 218.634 229.778 218.634C234.967 221.297 240.544 224.799 244.132 228.547C250.726 235.475 252.787 240.506 251.743 242.184Z" fill="#D89A80"/>
<path d="M238.267 272.951L243.845 270.905C243.845 270.905 246.92 274.722 249.458 275.398C252.08 276.094 255.756 279.637 257.462 280.603C259.168 281.572 262.199 288.178 257.462 288.888C252.722 289.598 247.657 286.724 246.435 286.03C245.212 285.336 241.613 280.288 240.195 279.737C238.776 279.183 233.609 277.051 233.047 273.581C232.658 271.182 234.823 269 234.823 269L238.267 272.951Z" fill="#CACACF"/>
<path d="M234.248 273.206C234.493 273.585 234.969 274.192 235.637 274.812C236.471 275.583 237.603 276.383 238.974 276.814C240.302 277.231 242.171 279.322 243.782 281.255C245.162 282.918 246.351 284.463 246.842 284.739C247.068 284.864 247.598 285.163 248.322 285.529C251.017 286.891 256.411 289.203 258.959 287.245C260.925 285.734 259.725 282.902 258.478 280.92C257.917 280.022 257.346 279.297 257.055 278.945L256.862 278.713L252.82 275.146C252.302 274.854 249.358 272.431 247.123 270.573L246.782 270.288C245.503 269.225 244.532 268.404 244.532 268.404C244.532 268.404 243.798 269.726 243.336 269.485C242.873 269.242 240.226 269.873 238.632 269.873C237.038 269.873 236.719 268.333 236.171 267.22C235.626 266.11 234.248 269.486 234.248 270.87C234.248 272.257 233.69 272.355 234.248 273.206Z" fill="#1D7FEC"/>
<path d="M245.731 267.567C245.731 267.567 245.68 266.934 244.785 267.006C243.89 267.078 241.147 268.52 241.026 268.582C240.907 268.644 241.204 270.287 241.82 271.125C242.433 271.961 244.413 273 244.413 273L248 271.117C248 271.117 245.731 268.195 245.731 267.567Z" fill="#1D7FEC"/>
<path d="M236.011 274.244C236.831 275.019 237.943 275.822 239.291 276.254C240.596 276.672 242.434 278.771 244.017 280.711C245.373 282.38 246.542 283.93 247.024 284.208C247.247 284.333 247.768 284.633 248.479 285C250.279 284.546 251.986 283.926 251.986 283.926C251.986 283.926 252 283.743 252 283.414C251.993 282.456 251.856 280.281 250.865 277.849C249.534 274.58 244.754 271 242.168 271C239.582 271 238.799 272.633 237.779 272.322C236.761 272.011 235.89 272.971 236.011 274.244Z" fill="#2C87ED"/>
<path d="M244 281.331C245.361 282.975 246.534 284.503 247.018 284.776C247.242 284.899 247.764 285.195 248.479 285.556C251.137 286.903 256.459 289.189 258.973 287.254C260.913 285.759 259.728 282.96 258.498 281C259.052 282.398 259.391 284.13 257.951 284.569C256.656 284.966 254.253 284.622 252.012 283.993C249.901 283.401 247.934 282.554 247.174 281.838C246.105 280.824 244.751 281.073 244 281.331Z" fill="#34D0B2"/>
<path d="M247.228 271.664C247.691 272.955 251.498 276.205 253.371 277.498C255.114 278.701 255.673 278.757 257 279L256.811 278.759L252.883 275.05C252.38 274.747 249.519 272.23 247.348 270.297L247.016 270C246.969 270.494 247.02 271.087 247.228 271.664Z" fill="#2C87ED"/>
<path d="M250.4 280C250.722 280 253 275.75 253 275.75C253 275.75 252.923 275.068 252.35 275.001C251.775 274.936 250.007 279.418 250.007 279.418C250.007 279.418 249.914 280 250.4 280Z" fill="#067A59"/>
<path d="M249.14 277.96C249.378 278.219 253.827 277.129 253.827 277.129C253.827 277.129 254.214 276.602 253.831 276.095C253.448 275.591 249.227 277.248 249.227 277.248C249.227 277.248 248.781 277.573 249.14 277.96Z" fill="#067A59"/>
<path d="M245.14 274.96C245.379 275.219 249.826 274.129 249.826 274.129C249.826 274.129 250.213 273.602 249.833 273.095C249.447 272.591 245.23 274.248 245.23 274.248C245.23 274.248 244.779 274.573 245.14 274.96Z" fill="#067A59"/>
<path d="M243.139 271.96C243.378 272.219 247.825 271.129 247.825 271.129C247.825 271.129 248.214 270.601 247.832 270.096C247.449 269.589 243.229 271.248 243.229 271.248C243.229 271.248 242.78 271.572 243.139 271.96Z" fill="#067A59"/>
<path d="M246.53 277C246.962 277 250 272.749 250 272.749C250 272.749 249.9 272.065 249.133 272.001C248.363 271.934 246.01 276.418 246.01 276.418C246.01 276.418 245.885 277 246.53 277Z" fill="#067A59"/>
<path d="M244.4 274C244.724 274 247 270.6 247 270.6C247 270.6 246.925 270.052 246.35 270.001C245.775 269.947 244.007 273.532 244.007 273.532C244.007 273.532 243.914 274 244.4 274Z" fill="#067A59"/>
<path d="M205.107 291.971L210.514 289.913C210.514 289.913 213.496 293.752 215.956 294.431C218.498 295.131 222.063 298.694 223.717 299.667C225.37 300.639 229.404 305.937 225.026 307.524C220.295 309.239 214.212 305.82 213.025 305.123C211.839 304.427 208.351 299.348 206.975 298.794C205.6 298.238 200.591 296.096 200.045 292.605C199.668 290.192 201.768 288 201.768 288L205.107 291.971Z" fill="#CACACF"/>
<path d="M201.245 292.151C201.487 292.527 201.956 293.128 202.615 293.742C203.436 294.506 204.554 295.302 205.906 295.728C207.217 296.142 209.059 298.212 210.648 300.128C212.01 301.776 213.182 303.307 213.667 303.581C213.891 303.707 215.233 304.001 215.947 304.366C218.604 305.716 223.603 306.929 226.116 304.989C228.057 303.491 226.373 301.76 225.144 299.796C224.589 298.908 224.027 298.188 223.741 297.841L223.548 297.611L219.564 294.073C219.052 293.786 216.149 291.384 213.944 289.542L213.608 289.259C212.346 288.205 211.387 287.394 211.387 287.394C211.387 287.394 210.664 288.702 210.207 288.463C209.752 288.223 207.142 288.848 205.568 288.848C203.996 288.848 203.682 287.323 203.141 286.218C202.604 285.118 201.245 288.463 201.245 289.838C201.245 291.212 200.694 291.307 201.245 292.151Z" fill="#1D7FEC"/>
<path d="M212.731 286.567C212.731 286.567 212.681 285.934 211.784 286.006C210.89 286.078 208.145 287.519 208.026 287.581C207.906 287.646 208.204 289.286 208.819 290.124C209.432 290.96 211.411 292 211.411 292L215 290.115C215 290.115 212.731 287.195 212.731 286.567Z" fill="#1D7FEC"/>
<path d="M202.012 293.244C202.882 294.018 204.063 294.823 205.496 295.255C206.884 295.673 208.835 297.77 210.517 299.709C211.958 301.378 213.201 302.928 213.714 303.206C213.952 303.333 214.504 303.631 215.259 304C217.172 303.544 218.986 302.924 218.986 302.924C218.986 302.924 219 302.74 219 302.412C218.993 301.456 218.847 299.28 217.794 296.848C216.379 293.582 211.3 290 208.553 290C205.805 290 204.973 291.633 203.891 291.322C202.808 291.011 201.882 291.971 202.012 293.244Z" fill="#2C87ED"/>
<path d="M210 300.304C211.378 301.815 212.565 303.219 213.056 303.47C213.283 303.586 213.811 303.855 214.532 304.19C217.221 305.427 223.691 306.973 226.233 305.194C228.197 303.821 225.914 301.801 224.67 300C225.23 301.284 227.031 302.476 225.574 302.877C224.263 303.241 220.374 303.329 218.108 302.751C215.972 302.206 213.981 301.428 213.212 300.77C212.13 299.838 210.761 300.067 210 300.304Z" fill="#34D0B2"/>
<path d="M213.249 290.664C213.76 291.954 217.95 295.205 220.009 296.496C221.927 297.699 222.541 297.754 224 298L223.791 297.759L219.473 294.051C218.918 293.748 215.772 291.229 213.383 289.297L213.018 289C212.966 289.494 213.021 290.087 213.249 290.664Z" fill="#2C87ED"/>
<path d="M216.531 299C216.961 299 220 294.75 220 294.75C220 294.75 219.901 294.068 219.133 294.001C218.366 293.934 216.01 298.416 216.01 298.416C216.01 298.416 215.884 299 216.531 299Z" fill="#067A59"/>
<path d="M215.168 296.961C215.454 297.217 220.791 296.128 220.791 296.128C220.791 296.128 221.257 295.601 220.797 295.095C220.339 294.592 215.273 296.247 215.273 296.247C215.273 296.247 214.736 296.574 215.168 296.961Z" fill="#067A59"/>
<path d="M212.139 293.961C212.379 294.218 216.826 293.128 216.826 293.128C216.826 293.128 217.214 292.6 216.831 292.096C216.448 291.59 212.229 293.249 212.229 293.249C212.229 293.249 211.78 293.573 212.139 293.961Z" fill="#067A59"/>
<path d="M209.167 290.961C209.454 291.218 214.791 290.128 214.791 290.128C214.791 290.128 215.257 289.6 214.797 289.096C214.338 288.59 209.275 290.247 209.275 290.247C209.275 290.247 208.736 290.573 209.167 290.961Z" fill="#067A59"/>
<path d="M213.398 296C213.722 296 216 291.751 216 291.751C216 291.751 215.924 291.068 215.349 291.001C214.774 290.934 213.007 295.416 213.007 295.416C213.007 295.416 212.913 296 213.398 296Z" fill="#067A59"/>
<path d="M210.531 293C210.963 293 214 289.6 214 289.6C214 289.6 213.901 289.054 213.133 289.001C212.365 288.947 210.01 292.534 210.01 292.534C210.01 292.534 209.884 293 210.531 293Z" fill="#067A59"/>
<path d="M218 259.072C217.951 261.11 217.217 263.964 216.216 265.604C215.946 266.049 215.654 266.422 215.361 266.648C213.406 268.162 210.474 270 210.474 270C210.474 270 207.713 269.479 205.172 268.262C203.876 267.642 202.606 266.82 201.824 265.827C201.433 265.356 201.14 264.808 201.017 264.237C200.113 260.066 197.303 260.313 193.76 256.463C193.369 256.042 192.978 255.619 192.611 255.173L192.441 254.998C189.532 251.621 186.844 247.77 185.036 242.853L184.841 242.382C182.763 236.471 184.841 234.782 187.749 232.448C190.656 230.137 200.797 230.658 203.411 233.54C205.562 235.875 207.982 241.216 209.789 244.964C210.229 245.835 210.596 246.604 210.938 247.225C212.77 250.627 218.049 256.515 218 259.072Z" fill="#D89A80"/>
<path d="M230 218.514C230 218.514 228.686 221.741 226.85 227.028C225.411 231.149 223.649 233.778 222.012 235.465C219.382 238.172 217.074 238.42 217.074 238.42L206.779 233.901L210.228 245.195C210.228 245.195 210.152 245.047 209.979 244.822C209.309 244.054 207.423 242.688 203.107 244.524C197.897 246.759 195.217 249.663 193.877 251.848C192.711 253.684 192.513 255 192.513 255L192.34 254.825C190.951 253.361 181.523 243.358 178.869 235.888C178.621 235.242 178.471 234.672 178.347 234.101C176.66 225.985 181.671 219.457 181.671 219.457L183.756 215.857V217.125C183.756 217.125 185.046 218.812 195.366 220.923C205.315 222.932 212.584 210.87 213.106 210C213.055 210.273 212.708 211.814 212.981 212.111L213.13 212.184C217.72 211.936 227.048 216.9 229.43 218.216C229.801 218.389 230 218.514 230 218.514Z" fill="#2A2C4C"/>
<path d="M230 163.115C230 163.115 223.275 175.821 222.014 177.976C220.754 180.13 217.748 182.317 216.295 182.972C214.842 183.627 207.383 172.671 209.319 171.018C211.255 169.363 210.036 167.853 213.608 166.992C217.181 166.131 225.855 161 225.855 161L230 163.115Z" fill="#CA8264"/>
<path d="M230.174 162.907C230.174 162.907 234 161.294 234 159.076C234 156.856 231.663 152.218 230.174 152.016C228.686 151.813 225.709 153.629 223.584 155.042C221.459 156.453 225.731 163.914 226.888 162.907C228.046 161.9 230.174 162.907 230.174 162.907Z" fill="#CA8264"/>
<path d="M174.208 193.334C174.829 195.104 180.746 210.459 180.746 210.459L182.014 215.037V218.779C182.014 218.779 184.781 224.817 191.147 225.86C197.515 226.898 204.518 221.903 207.851 219.822C211.181 217.742 213.062 215.248 213.062 215.248V212.66C213.062 212.66 213.062 212.66 214.753 210.459C216.443 208.261 214.753 204.843 214.753 204.843C214.753 204.843 216.828 201.097 218.525 198.809C219.646 197.302 219.286 191.443 219.219 186.74C219.184 184.304 219.226 182.182 219.585 181.121C220.649 178.001 219.585 173.84 217.328 170.72C215.071 167.598 211.479 169.68 211.479 169.68C211.479 169.68 207.466 170.391 203.891 171.279C203.222 171.443 202.573 171.615 201.965 171.786C200.542 172.194 199.36 172.616 198.788 173.006C196.664 174.464 192.813 179.194 188.813 179.668C184.812 180.139 182.88 183.203 181.384 184.241C181.164 184.396 180.823 184.604 180.402 184.867C177.965 186.39 172.916 189.644 174.208 193.334Z" fill="#A55137"/>
<path d="M180 205.197L182.635 215.028L182.021 220.814C182.021 220.814 183.035 224.867 191.536 225.917C197.781 226.686 204.567 221.936 207.816 219.841C211.061 217.749 212.894 215.24 212.894 215.24V212.635C212.894 212.635 212.894 212.635 214.542 210.421C216.189 208.21 214.542 204.77 214.542 204.77C214.542 204.77 216.565 201.002 218.219 198.7C219.311 197.183 218.96 191.288 218.895 186.556C218.821 183.202 214.548 177.285 213.624 173.938C212.703 170.587 207.816 173.367 207.816 173.367L203.956 171C203.304 171.165 202.672 171.339 202.079 171.51L210.538 175.798C210.538 175.798 213.985 183.629 211.352 188.233C210.494 189.734 202.369 193.516 198.835 191.483C193.01 188.133 186.395 182.674 186.395 182.674C182.495 183.148 183.479 182.997 182.021 184.042C181.807 184.198 181.475 184.408 181.064 184.672C181.064 184.672 188.601 185.536 189.882 196.398C191.21 207.652 180 205.197 180 205.197Z" fill="#004CA0"/>
<path d="M181.007 185C183.542 185.221 185.872 186.925 187.383 189.169C188.919 191.435 189.67 194.185 189.939 196.907C190.029 198.288 190.07 199.711 189.687 201.101C189.372 202.486 188.588 203.833 187.459 204.642C185.186 206.298 182.387 206.228 180 205.55C182.453 205.742 185.109 205.459 186.919 203.887C188.756 202.317 189.044 199.537 188.793 197.034C188.564 194.447 187.895 191.9 186.652 189.695C185.393 187.526 183.428 185.728 181.007 185Z" fill="#D0D0D4"/>
<path d="M210.75 176C212.274 179.157 213.409 182.702 212.859 186.394C212.699 187.329 212.46 188.183 211.842 189.077C211.101 189.887 210.32 190.27 209.512 190.725C207.903 191.583 206.2 192.213 204.423 192.657C202.649 192.989 200.714 193.299 198.833 192.468C197.175 191.59 195.736 190.645 194.276 189.601C191.379 187.546 188.601 185.34 186 182.935C188.922 184.935 191.829 186.936 194.81 188.806C196.303 189.696 197.817 190.714 199.305 191.442C200.712 192.056 202.518 191.804 204.146 191.449C205.808 191.071 207.46 190.5 208.988 189.724C209.726 189.348 210.552 188.893 211.009 188.394C211.393 187.848 211.752 186.995 211.922 186.205C212.305 184.575 212.243 182.819 211.979 181.107C211.755 179.377 211.302 177.677 210.75 176Z" fill="#D0D0D4"/>
<path d="M218.981 186C218.624 184.386 217.784 182.98 216.989 181.556C216.158 180.144 215.328 178.723 214.545 177.251C214.173 176.501 213.796 175.753 213.502 174.943C213.197 174.044 213.117 173.421 212.573 173.064C212.04 172.706 211.204 172.669 210.416 172.801C209.604 172.887 208.803 173.139 208 173.404C208.681 172.9 209.455 172.531 210.281 172.238C211.106 171.994 212.075 171.837 213.041 172.281C214.074 172.745 214.293 173.964 214.57 174.549C214.867 175.275 215.241 175.999 215.62 176.719C216.36 178.174 217.17 179.622 217.819 181.159C218.451 182.676 219.123 184.312 218.981 186Z" fill="#D0D0D4"/>
<path d="M178.377 187C178.377 187 174.709 187.525 172.952 192.456C171.196 197.386 171.196 202.109 171.196 202.109C171.196 202.109 168.302 202.634 167.166 206.619C166.03 210.604 163.344 218.892 166.443 218.998C169.543 219.102 177.489 214.911 179.151 212.493C180.814 210.077 181.837 205.255 181.837 205.255C181.837 205.255 193.202 190.253 178.377 187Z" fill="#B66D54"/>
<path d="M170.796 207.632C170.796 207.632 171.611 213.041 169.982 215.435C168.354 217.826 167.273 219.685 166.017 218.756C164.761 217.826 161.945 212.001 161.232 210.543C160.52 209.087 161.639 205.965 162.046 204.094C162.453 202.222 162.657 199.62 162.657 199.62L167.096 197C167.096 197 168.151 200.972 168.151 201.284C168.151 201.598 170.796 207.632 170.796 207.632Z" fill="#CA8264"/>
<path d="M166.533 199.662C166.533 199.662 167.584 195.569 166.533 194.746C165.483 193.924 165.065 193.316 165.065 193.316C165.065 193.316 160.831 189.743 160.316 190.015C159.799 190.286 155 196.557 155 196.557C155 196.557 155.153 197.649 158.067 198.745C160.978 199.841 165.102 202.659 166.533 199.662Z" fill="#CA8264"/>
<path d="M206 182.354C206 182.354 204.993 185.23 204.993 186.757C204.993 188.287 203.386 191.186 202.161 190.991C200.936 190.795 197.327 186.976 196.408 184.573C195.49 182.173 196.408 175.734 196.408 175.734L199.214 174L206 182.354Z" fill="#B66D54"/>
<path d="M255.792 142.776L142 207V203.288L253.819 140.249C254.01 139.966 254.392 139.91 254.834 140.155C255.484 140.532 256 141.418 256 142.134C256 142.417 255.925 142.645 255.792 142.776Z" fill="#0D0F34"/>
<path d="M158.426 189C159.696 189 160.229 189.104 160.921 190.075C161.614 191.047 163.336 191.045 162.942 191.678C162.549 192.313 161.609 195.966 160.024 192.582C159.281 190.998 157.082 189 158.426 189Z" fill="#D89A80"/>
<path d="M157.316 189C158.549 189 159.065 189.134 159.738 190.386C160.411 191.637 162.081 191.634 161.701 192.45C161.318 193.269 162.989 196.319 161.018 195.973C159.046 195.627 156.01 189 157.316 189Z" fill="#D89A80"/>
<path d="M155.611 191C156.829 191 157.34 191.113 158.005 192.175C158.67 193.24 160.323 193.238 159.944 193.933C159.567 194.628 159.092 195.217 157.143 194.922C155.193 194.628 154.319 191 155.611 191Z" fill="#D89A80"/>
<path d="M167.451 199L168 193.496C168 193.496 166.634 190.833 166.797 190.013C166.96 189.191 164.255 190.013 162.902 189.191C161.549 188.371 161.86 190.422 162.902 191.036C163.942 191.653 164.673 191.653 164.673 191.653L165.001 193.908C165.001 193.908 162.688 195.112 162.693 196.821C162.698 198.529 167.451 199 167.451 199Z" fill="#D89A80"/>
<path d="M154.16 195.86C154.16 195.86 153.685 193.736 154.373 193.717C155.06 193.697 156.133 193 156.133 193L159.806 193.758L161 195.315C161 195.315 160.202 196.748 159.06 195.47C157.918 194.194 156.321 194.93 156.321 194.93L154.16 195.86Z" fill="#D89A80"/>
<path d="M228.554 158.09C228.554 158.09 232.608 161.979 230.278 163.279C227.949 164.581 226.724 163.882 225.958 163.044C225.19 162.206 225.19 159.782 225.19 158.832C225.19 157.877 225.688 157.242 225.19 156.713C224.692 156.183 225.25 154.623 225.958 153.442C226.664 152.261 228.855 152.156 229.073 151.204C229.293 150.249 230.388 152.898 229.293 154.063C228.197 155.228 228.554 158.09 228.554 158.09Z" fill="#B66D54"/>
<path d="M223.094 156.079C222.865 154.887 223.056 153.622 223.647 152.633C224.531 151.152 225.864 149.347 226.705 150.236C228.049 151.663 231.037 154.82 229.634 155.177C228.23 155.534 225.906 153.354 225.906 153.354L223.27 157L223.094 156.079Z" fill="#B66D54"/>
<path d="M225.107 150.639C225.107 150.639 226.781 148.054 228.294 149.377C229.808 150.697 233.167 153.634 231.587 153.963C230.01 154.295 227.397 152.273 227.397 152.273L225 153.855L225.107 150.639Z" fill="#B66D54"/>
<path d="M228.06 149.062C228.06 149.062 230.013 146.971 230.658 148.657C231.303 150.344 232.735 154.088 231.538 153.998C230.342 153.911 229.148 151.253 229.148 151.253L227 152.179L228.06 149.062Z" fill="#B66D54"/>
<path d="M231.228 149.038C231.228 149.038 233.974 148.656 233.994 150.322C234.013 151.989 234.059 155.686 232.889 154.889C231.715 154.091 231.505 151.357 231.505 151.357L229 150.741L231.228 149.038Z" fill="#B66D54"/>
<path d="M210.457 163.525C210.457 163.525 213.89 170.027 213.994 171.438C214.098 172.848 212.849 175.357 212.849 175.357C212.849 175.357 213.786 179.12 213.057 180.27C212.329 181.419 211.705 182.152 211.601 182.726C211.497 183.301 211.497 184.764 209.729 184.973C207.96 185.183 202.966 184.137 201.301 182.726C199.636 181.315 197.154 178.703 197.154 178.703C197.154 178.703 192.457 170.333 192.041 168.195C191.625 166.054 194.397 158.215 200.129 158.006C205.862 157.796 210.457 163.525 210.457 163.525Z" fill="#CA8264"/>
<path d="M196.745 174.848C196.745 174.848 195.175 172.941 194.164 174.848C193.152 176.757 197.162 179 197.162 179H199L196.745 174.848Z" fill="#D89A80"/>
<path d="M190.19 163.917C190.19 163.917 189.763 165.811 190.19 168.482C190.803 172.313 193.692 174.103 193.692 174.103C193.692 174.103 196.176 170.573 197.837 174.458C199.499 178.344 199.243 178.564 199.888 177.338C200.532 176.109 199.062 169.836 201.121 169.303C203.181 168.768 207.113 167.867 209.205 167.482C211.296 167.094 212 163.917 212 163.917C212 163.917 209.268 154.319 202.187 155.039C195.106 155.761 193.46 157.542 190.19 163.917Z" fill="#0D0F34"/>
<path d="M133 86L128 83.3234V78L133 80.6788V86Z" fill="#6E718E"/>
<path d="M226 31.5679L133 86V80.4321L226 26V31.5679Z" fill="#0D0F34"/>
<path d="M132.878 81L128 78.1587L221.124 23L226 25.8413L132.878 81Z" fill="#313352"/>
<path d="M72 239L67 235.989V230L72 233.014V239Z" fill="#6E718E"/>
<path d="M166 183.661L72 239V233.339L166 178V183.661Z" fill="#0D0F34"/>
<path d="M71.9267 233L67 230.159L161.072 175L166 177.839L71.9267 233Z" fill="#313352"/>
<path d="M37 237.663L42.969 234.217L60.6304 229.232C62.0387 228.836 63.6948 228.949 65.4215 229.56L172.798 269.587C177.428 271.301 182.102 275.182 185.952 280.516C189.803 285.85 192.351 291.968 193.125 297.744L196 322.554L190.03 326L185.357 303.318C184.756 298.896 184.898 293.227 181.952 289.145C178.997 285.051 175.496 279.067 171.94 277.752L58.1662 234.566C57.0428 234.172 37 237.663 37 237.663Z" fill="#0D0F34"/>
<path d="M165 269.562L159.082 273L130 69.4375L135.919 66L165 269.562Z" fill="#313352"/>
<path d="M77.4347 236L72 235.126L94.8192 68.0968C95.4011 64.4709 100.865 63.7642 103.497 62.2425C106.139 60.714 109.501 60.5921 112.965 61.8971L129 67.9478L127.545 72.6777L111.02 67.0402C109.684 66.5367 107.775 66.1212 106.257 66.9995C104.752 67.8687 104.169 69.7088 103.947 71.0973L77.4347 236Z" fill="#0D0F34"/>
<path d="M43.4128 241.866L37 238.186L54.6589 233.23C56.066 232.837 57.7206 232.949 59.4478 233.557L166.805 273.347C171.433 275.051 176.105 278.909 179.956 284.211C183.807 289.512 186.352 295.595 187.128 301.337L190 326L185.979 323.691L183.119 299.761C182.518 295.366 180.566 290.711 177.618 286.653C174.664 282.584 171.077 279.624 167.521 278.314L60.2077 238.54C59.0845 238.146 58.0072 238.076 57.0918 238.333L43.4128 241.866Z" fill="#6E718E"/>
<path d="M159 273L153.779 270.957L125 67L130.22 69.0434L159 273Z" fill="#6E718E"/>
<path d="M71.464 240L66 239.121L92.6552 73.2795C93.2411 69.6329 95.0213 66.781 97.6671 65.2483C100.325 63.7111 103.705 63.5907 107.188 64.9032L131 73.8903L129.043 79.0627L105.231 70.0757C103.889 69.5693 101.968 69.1492 100.442 70.0325C98.9288 70.909 98.3446 72.7572 98.1201 74.156L71.464 240Z" fill="#6E718E"/>
<path d="M136 95.8188L137.421 95.7589L137.738 93.0785L138.565 93L139 97.7325L136.754 102L136 95.8188Z" fill="#0D0F34"/>
<path d="M137 108.132L138.894 108.065L139.316 105.085L140.42 105L141 110.261L138.006 115L137 108.132Z" fill="#0D0F34"/>
<path d="M139 120.132L140.893 120.063L141.316 117.085L142.42 117L143 122.261L140.006 127L139 120.132Z" fill="#0D0F34"/>
<path d="M141 132.819L142.421 132.759L142.738 130.076L143.565 130L144 134.732L141.755 139L141 132.819Z" fill="#0D0F34"/>
<path d="M142 145.132L143.893 145.063L144.316 142.085L145.42 142L146 147.261L143.006 152L142 145.132Z" fill="#0D0F34"/>
<path d="M144 157.132L145.894 157.063L146.317 154.085L147.421 154L148 159.261L145.007 164L144 157.132Z" fill="#0D0F34"/>
<path d="M146 169.819L147.421 169.759L147.738 167.076L148.565 167L149 171.733L146.755 176L146 169.819Z" fill="#0D0F34"/>
<path d="M147 182.132L148.895 182.063L149.317 179.085L150.421 179L151 184.258L148.007 189L147 182.132Z" fill="#0D0F34"/>
<path d="M149 194.132L150.421 194.063L150.737 191.085L151.565 191L152 196.258L149.754 201L149 194.132Z" fill="#0D0F34"/>
<path d="M150 206.132L151.895 206.065L152.316 203.085L153.421 203L154 208.258L151.006 213L150 206.132Z" fill="#0D0F34"/>
<path d="M152 219.13L153.894 219.063L154.316 216.085L155.42 216L156 221.258L153.006 226L152 219.13Z" fill="#0D0F34"/>
<path d="M154 231.132L155.421 231.063L155.738 228.085L156.566 228L157 233.258L154.754 238L154 231.132Z" fill="#0D0F34"/>
<path d="M155 243.134L156.894 243.065L157.317 240.087L158.42 240L159 245.259L156.007 250L155 243.134Z" fill="#0D0F34"/>
<path d="M156.107 260.868C154.87 260.383 153.7 258.723 153.492 257.159L131.032 89.0918C130.823 87.5273 131.656 86.6487 132.893 87.1333C134.128 87.6155 135.299 89.2752 135.506 90.8397L157.968 258.909C158.176 260.474 157.342 261.35 156.107 260.868Z" fill="#0D0F34"/>
<path d="M130.184 69L125 67.1381L130.816 64L136 65.8619L130.184 69Z" fill="#625A73"/>
<path d="M162 210.177C162 200.243 155.087 188.138 146.559 183.142C142.083 180.516 138.063 180.394 135.243 182.287L128 186.533L131.137 191.656L131.119 192.078C131.119 202.012 138.031 214.117 146.559 219.116C147.241 219.516 147.907 219.837 148.565 220.122L150.941 224L156.798 220.568C157.288 220.347 157.752 220.078 158.183 219.755C160.589 217.91 162 214.652 162 210.177Z" fill="#191B3E"/>
<path d="M155 213.987C155 223.852 148.06 227.826 139.501 222.862C130.939 217.898 124 205.877 124 196.013C124 186.148 130.939 182.174 139.501 187.138C148.06 192.1 155 204.123 155 213.987Z" fill="#363857"/>
<path d="M153 212.639C153 221.025 146.956 224.402 139.5 220.183C132.044 215.965 126 205.746 126 197.361C126 188.975 132.044 185.598 139.5 189.817C146.956 194.035 153 204.254 153 212.639Z" fill="#EB5254"/>
<path d="M143 207.246C143 209.712 141.432 210.707 139.5 209.465C137.566 208.224 136 205.22 136 202.754C136 200.288 137.566 199.293 139.5 200.535C141.432 201.776 143 204.78 143 207.246Z" fill="#0D0F34"/>
<path d="M142 206.498C142 204.966 140.898 203.101 139.537 202.33C138.824 201.925 138.183 201.907 137.732 202.199L117 214.228L117.499 215.016C117.497 216.613 118.599 218.477 119.958 219.246L120.279 219.404L120.658 220L141.171 208.097L141.391 207.973C141.775 207.687 142 207.186 142 206.498Z" fill="#3D3F5D"/>
<path d="M121 218.349C121 219.829 119.881 220.423 118.501 219.679C117.119 218.936 116 217.131 116 215.653C116 214.172 117.119 213.577 118.501 214.32C119.881 215.066 121 216.868 121 218.349Z" fill="#6E718E"/>
<path d="M237.291 269C237.291 269 237.275 268.988 237.244 268.97C236.852 268.4 236.635 267.615 236.352 266.968C236.35 266.963 236.349 266.961 236.349 266.959C236.022 264.749 235.539 262.108 234.982 261.501C233.98 260.429 233 259.359 233 256.757C233 254.767 235.495 248.008 236.662 245C238.085 245.789 239.483 246.401 241 246.656C240.511 248.8 237.378 256.134 236.771 258.506C235.791 262.332 237.291 269 237.291 269Z" fill="#BF7F69"/>
<path d="M240.759 247C239.192 246.762 237.746 246.191 236.277 245.454C235.289 244.977 234.276 244.405 233.192 243.786C230.205 242.072 221.097 241.048 217 238.834C217 238.834 219.241 238.597 221.796 236C227.433 238.335 235.168 241.573 238.734 243.311C239.77 243.786 240.47 244.168 240.662 244.357C241.121 244.811 241.072 245.788 240.759 247Z" fill="#C8907A"/>
<path d="M237 269C236.892 268.937 236.621 268.784 236.245 268.573C236.176 268.106 236.093 267.567 236 267C236.001 267.002 236.002 267.005 236.004 267.009C236.319 267.653 236.562 268.433 237 269Z" fill="#1B77E0"/>
<path d="M217.138 239L207 234.543L207.122 234.298C207.66 233.173 209.784 228.52 209.784 226.439C209.784 226.135 209.824 226 209.902 226C210.432 226 212.692 232.229 215.697 233.466C216.674 233.859 219.068 234.863 222 236.085C219.41 238.756 217.138 239 217.138 239Z" fill="#272948"/>
<path d="M204.999 289C204.953 288.927 204.178 287.707 203.001 285.901C202.304 283.444 201.27 279.797 200.82 278.507C200.146 276.496 199 274.71 199 272.551C199 270.865 200.865 267.391 201.652 266C202.371 266.993 203.539 267.813 204.732 268.434C203.787 270.12 202.709 271.213 202.776 272.799C202.865 275.43 204.962 288.757 205 289C204.999 289 204.999 289 204.999 289Z" fill="#BF7F69"/>
<path d="M205.391 268C204.009 267.388 202.655 266.58 201.822 265.601C201.404 265.137 201.092 264.597 200.962 264.035C199.997 259.926 197.001 260.17 193.225 256.377C192.808 255.963 192.391 255.546 192 255.107C192 255.107 192.208 253.81 193.432 252C194.214 252.612 194.893 253.051 195.413 253.27C199.658 255.107 207.448 258.851 206.98 263.645C206.796 265.551 206.12 266.898 205.391 268Z" fill="#C8907A"/>
<path d="M192.637 255L192.464 254.826C191.075 253.371 181.653 243.427 179 236C179.347 236.395 181.875 239.38 184.95 242.76C187.95 246.116 191.521 249.866 194 251.866C192.835 253.692 192.637 255 192.637 255Z" fill="#272948"/>
</svg>
