<svg width="238" height="170" viewBox="0 0 238 170" fill="none" xmlns="http://www.w3.org/2000/svg">
<path d="M26.8047 156.943C26.218 156.943 25.7247 156.743 25.3247 156.343C24.9247 155.943 24.7247 155.45 24.7247 154.863V127.783C24.7247 127.17 24.9247 126.676 25.3247 126.303C25.7247 125.903 26.218 125.703 26.8047 125.703H34.0047C36.0047 125.703 37.778 126.13 39.3247 126.983C40.8714 127.81 42.0714 128.956 42.9247 130.423C43.8047 131.89 44.2447 133.596 44.2447 135.543C44.2447 137.356 43.8047 138.97 42.9247 140.383C42.0714 141.796 40.8714 142.903 39.3247 143.703C37.778 144.503 36.0047 144.903 34.0047 144.903H28.8847V154.863C28.8847 155.45 28.6847 155.943 28.2847 156.343C27.9114 156.743 27.418 156.943 26.8047 156.943ZM43.4047 156.943C43.0314 156.943 42.6847 156.863 42.3647 156.703C42.0714 156.543 41.818 156.29 41.6047 155.943L34.4047 144.343L38.4447 143.183L45.0047 153.743C45.4847 154.516 45.5514 155.25 45.2047 155.943C44.858 156.61 44.258 156.943 43.4047 156.943ZM28.8847 141.063H34.0047C35.2314 141.063 36.3114 140.836 37.2447 140.383C38.178 139.903 38.9114 139.25 39.4447 138.423C39.978 137.57 40.2447 136.61 40.2447 135.543C40.2447 134.37 39.978 133.33 39.4447 132.423C38.9114 131.516 38.178 130.81 37.2447 130.303C36.3114 129.796 35.2314 129.543 34.0047 129.543H28.8847V141.063ZM64.4381 157.343C62.0915 157.343 59.9448 156.956 57.9981 156.183C56.0515 155.383 54.3715 154.276 52.9581 152.863C51.5715 151.423 50.4915 149.73 49.7181 147.783C48.9448 145.81 48.5581 143.65 48.5581 141.303C48.5581 138.956 48.9448 136.81 49.7181 134.863C50.4915 132.916 51.5715 131.236 52.9581 129.823C54.3715 128.383 56.0515 127.276 57.9981 126.503C59.9448 125.703 62.0915 125.303 64.4381 125.303C66.7848 125.303 68.9181 125.703 70.8381 126.503C72.7848 127.276 74.4648 128.383 75.8781 129.823C77.2915 131.236 78.3848 132.916 79.1581 134.863C79.9315 136.81 80.3181 138.956 80.3181 141.303C80.3181 143.65 79.9315 145.81 79.1581 147.783C78.3848 149.73 77.2915 151.423 75.8781 152.863C74.4648 154.276 72.7848 155.383 70.8381 156.183C68.9181 156.956 66.7848 157.343 64.4381 157.343ZM64.4381 153.583C66.1715 153.583 67.7581 153.276 69.1981 152.663C70.6648 152.023 71.9315 151.156 72.9981 150.063C74.0648 148.943 74.8781 147.636 75.4381 146.143C76.0248 144.65 76.3181 143.036 76.3181 141.303C76.3181 139.57 76.0248 137.956 75.4381 136.463C74.8781 134.97 74.0648 133.676 72.9981 132.583C71.9315 131.463 70.6648 130.596 69.1981 129.983C67.7581 129.37 66.1715 129.063 64.4381 129.063C62.7048 129.063 61.1048 129.37 59.6381 129.983C58.1981 130.596 56.9448 131.463 55.8781 132.583C54.8381 133.676 54.0248 134.97 53.4381 136.463C52.8515 137.956 52.5581 139.57 52.5581 141.303C52.5581 143.036 52.8515 144.65 53.4381 146.143C54.0248 147.636 54.8381 148.943 55.8781 150.063C56.9448 151.156 58.1981 152.023 59.6381 152.663C61.1048 153.276 62.7048 153.583 64.4381 153.583ZM99.9141 157.583C97.3541 157.583 95.0874 157.116 93.1141 156.183C91.1408 155.223 89.5941 153.903 88.4741 152.223C87.3808 150.543 86.8341 148.623 86.8341 146.463V127.783C86.8341 127.17 87.0341 126.676 87.4341 126.303C87.8341 125.903 88.3274 125.703 88.9141 125.703C89.5274 125.703 90.0208 125.903 90.3941 126.303C90.7941 126.676 90.9941 127.17 90.9941 127.783V146.463C90.9941 147.903 91.3674 149.183 92.1141 150.303C92.8874 151.396 93.9408 152.263 95.2741 152.903C96.6341 153.516 98.1808 153.823 99.9141 153.823C101.594 153.823 103.074 153.516 104.354 152.903C105.661 152.263 106.674 151.396 107.394 150.303C108.141 149.183 108.514 147.903 108.514 146.463V127.783C108.514 127.17 108.714 126.676 109.114 126.303C109.514 125.903 110.007 125.703 110.594 125.703C111.207 125.703 111.701 125.903 112.074 126.303C112.447 126.676 112.634 127.17 112.634 127.783V146.463C112.634 148.623 112.087 150.543 110.994 152.223C109.927 153.903 108.434 155.223 106.514 156.183C104.594 157.116 102.394 157.583 99.9141 157.583ZM129.863 156.943C129.276 156.943 128.783 156.743 128.383 156.343C127.983 155.943 127.783 155.45 127.783 154.863V125.703H131.943V154.863C131.943 155.45 131.743 155.943 131.343 156.343C130.943 156.743 130.45 156.943 129.863 156.943ZM119.143 129.543C118.583 129.543 118.116 129.37 117.743 129.023C117.396 128.65 117.223 128.183 117.223 127.623C117.223 127.063 117.396 126.61 117.743 126.263C118.116 125.89 118.583 125.703 119.143 125.703H140.543C141.103 125.703 141.556 125.89 141.903 126.263C142.276 126.61 142.463 127.063 142.463 127.623C142.463 128.183 142.276 128.65 141.903 129.023C141.556 129.37 141.103 129.543 140.543 129.543H119.143ZM149.148 156.943C148.562 156.943 148.068 156.743 147.668 156.343C147.268 155.943 147.068 155.45 147.068 154.863V127.783C147.068 127.17 147.268 126.676 147.668 126.303C148.068 125.903 148.562 125.703 149.148 125.703C149.762 125.703 150.255 125.903 150.628 126.303C151.028 126.676 151.228 127.17 151.228 127.783V154.863C151.228 155.45 151.028 155.943 150.628 156.343C150.255 156.743 149.762 156.943 149.148 156.943ZM161.257 156.943C160.67 156.943 160.177 156.743 159.777 156.343C159.404 155.943 159.217 155.45 159.217 154.863V127.783C159.217 127.17 159.404 126.676 159.777 126.303C160.177 125.903 160.67 125.703 161.257 125.703C161.897 125.703 162.43 125.956 162.857 126.463L180.297 149.663V127.783C180.297 127.17 180.497 126.676 180.897 126.303C181.297 125.903 181.79 125.703 182.377 125.703C182.99 125.703 183.484 125.903 183.857 126.303C184.23 126.676 184.417 127.17 184.417 127.783V154.863C184.417 155.45 184.23 155.943 183.857 156.343C183.484 156.743 182.99 156.943 182.377 156.943C182.11 156.943 181.817 156.89 181.497 156.783C181.204 156.65 180.964 156.463 180.777 156.223L163.337 133.023V154.863C163.337 155.45 163.137 155.943 162.737 156.343C162.364 156.743 161.87 156.943 161.257 156.943ZM194.5 156.943C193.913 156.943 193.42 156.743 193.02 156.343C192.62 155.943 192.42 155.45 192.42 154.863V127.783C192.42 127.17 192.62 126.676 193.02 126.303C193.42 125.903 193.913 125.703 194.5 125.703H212.58C213.193 125.703 213.687 125.89 214.06 126.263C214.433 126.61 214.62 127.076 214.62 127.663C214.62 128.223 214.433 128.676 214.06 129.023C213.687 129.37 213.193 129.543 212.58 129.543H196.58V139.263H208.06C208.673 139.263 209.167 139.45 209.54 139.823C209.913 140.17 210.1 140.623 210.1 141.183C210.1 141.743 209.913 142.21 209.54 142.583C209.167 142.93 208.673 143.103 208.06 143.103H196.58V153.103H212.58C213.193 153.103 213.687 153.276 214.06 153.623C214.433 153.97 214.62 154.423 214.62 154.983C214.62 155.57 214.433 156.05 214.06 156.423C213.687 156.77 213.193 156.943 212.58 156.943H194.5Z" fill="black"/>
<path d="M85.7222 99.4113H72.2198C68.1184 99.4113 64.7935 96.0863 64.7935 91.985V9.95801C64.7935 5.85666 68.1184 2.5317 72.2198 2.5317H85.7222C89.8235 2.5317 93.1485 5.85666 93.1485 9.95801V91.985C93.1485 96.0863 89.8235 99.4113 85.7222 99.4113Z" fill="#546E7A"/>
<path d="M85.7221 2.5317H75.5953C79.6967 2.5317 83.0216 5.85666 83.0216 9.95801V91.985C83.0216 96.0863 79.6967 99.4113 75.5953 99.4113H85.7221C89.8235 99.4113 93.1484 96.0863 93.1484 91.985V9.95801C93.1484 5.85666 89.8235 2.5317 85.7221 2.5317Z" fill="#455A64"/>
<path d="M60.0675 88.7782H49.2656C46.6556 88.7782 44.5398 86.6624 44.5398 84.0523V17.8907C44.5398 15.2806 46.6556 13.1648 49.2656 13.1648H60.0675C62.6775 13.1648 64.7934 15.2806 64.7934 17.8907V84.0523C64.7934 86.6624 62.6775 88.7782 60.0675 88.7782Z" fill="#546E7A"/>
<path d="M60.0676 13.1648H49.9408C52.5508 13.1648 54.6666 15.2806 54.6666 17.8907V84.0523C54.6666 86.6624 52.5508 88.7782 49.9408 88.7782H60.0676C62.6776 88.7782 64.7934 86.6624 64.7934 84.0523V17.8907C64.7934 15.2806 62.6776 13.1648 60.0676 13.1648Z" fill="#455A64"/>
<path d="M44.5399 64.4739H37.7887C35.9243 64.4739 34.4131 62.9626 34.4131 61.0983V40.8447C34.4131 38.9804 35.9243 37.4691 37.7887 37.4691H44.5399V64.4739Z" fill="#FFD54F"/>
<path d="M93.1484 42.2932H143.445V59.6498H93.1484V42.2932Z" fill="#E0E0E0"/>
<path d="M133.318 42.2932H143.445V59.6498H133.318V42.2932Z" fill="#BDBDBD"/>
<path d="M164.374 99.4113H150.871C146.77 99.4113 143.445 96.0863 143.445 91.985V9.95801C143.445 5.85666 146.77 2.5317 150.871 2.5317H164.374C168.475 2.5317 171.8 5.85666 171.8 9.95801V91.985C171.8 96.0863 168.475 99.4113 164.374 99.4113Z" fill="#546E7A"/>
<path d="M164.373 2.5317H154.247C158.348 2.5317 161.673 5.85666 161.673 9.95801V91.985C161.673 96.0863 158.348 99.4113 154.247 99.4113H164.373C168.475 99.4113 171.8 96.0863 171.8 91.985V9.95801C171.8 5.85666 168.475 2.5317 164.373 2.5317Z" fill="#455A64"/>
<path d="M187.328 88.7782H176.526C173.916 88.7782 171.8 86.6624 171.8 84.0523V17.8907C171.8 15.2806 173.916 13.1648 176.526 13.1648H187.328C189.938 13.1648 192.053 15.2806 192.053 17.8907V84.0523C192.053 86.6624 189.938 88.7782 187.328 88.7782Z" fill="#546E7A"/>
<path d="M187.328 13.1648H177.201C179.811 13.1648 181.927 15.2806 181.927 17.8907V84.0523C181.927 86.6624 179.811 88.7782 177.201 88.7782H187.328C189.938 88.7782 192.053 86.6624 192.053 84.0523V17.8907C192.053 15.2806 189.938 13.1648 187.328 13.1648Z" fill="#455A64"/>
<path d="M198.805 64.4739H192.053V37.4691H198.805C200.669 37.4691 202.18 38.9804 202.18 40.8447V61.0983C202.18 62.9626 200.669 64.4739 198.805 64.4739Z" fill="#FFD54F"/>
<path d="M198.805 34.9374H194.585V17.8907C194.585 13.8889 191.329 10.6331 187.328 10.6331H176.526C175.761 10.6331 175.024 10.7536 174.331 10.9741V9.95801C174.331 4.46726 169.864 0 164.373 0L150.871 0C145.38 0 140.913 4.46726 140.913 9.95801V39.7615H95.6801V9.95801C95.6801 4.46726 91.2128 0 85.7221 0L72.2197 0C66.729 0 62.2617 4.46726 62.2617 9.95801V10.9741C61.569 10.7536 60.8321 10.6331 60.0676 10.6331H49.2657C45.2639 10.6331 42.0081 13.8889 42.0081 17.8907V21.1606C42.0081 22.5588 43.1417 23.6923 44.5398 23.6923C45.938 23.6923 47.0715 22.5588 47.0715 21.1606V17.8907C47.0715 16.6808 48.0559 15.6965 49.2657 15.6965H60.0676C61.2774 15.6965 62.2617 16.6808 62.2617 17.8907V84.0523C62.2617 85.2622 61.2774 86.2465 60.0676 86.2465H49.2657C48.0559 86.2465 47.0715 85.2622 47.0715 84.0523V31.9936C47.0715 30.5954 45.938 29.4619 44.5398 29.4619C43.1417 29.4619 42.0081 30.5954 42.0081 31.9936V34.9374H37.7886C34.5315 34.9374 31.8813 37.5876 31.8813 40.8447V61.0983C31.8813 64.3554 34.5315 67.0056 37.7886 67.0056H42.0081V84.0523C42.0081 88.0541 45.2639 91.3099 49.2657 91.3099H60.0676C60.8321 91.3099 61.569 91.1894 62.2617 90.9689V91.985C62.2617 97.4757 66.729 101.943 72.2197 101.943H85.7221C91.2128 101.943 95.6801 97.4757 95.6801 91.985V62.1815H99.3649C100.763 62.1815 101.897 61.048 101.897 59.6498C101.897 58.2517 100.763 57.1181 99.3649 57.1181H95.6801V44.8249H140.913V57.1181H110.34C108.941 57.1181 107.808 58.2517 107.808 59.6498C107.808 61.048 108.941 62.1815 110.34 62.1815H140.913V91.985C140.913 97.4757 145.38 101.943 150.871 101.943H164.373C169.864 101.943 174.331 97.4757 174.331 91.985V90.9689C175.024 91.1894 175.761 91.3099 176.526 91.3099H187.328C191.329 91.3099 194.585 88.0541 194.585 84.0523V80.6335C194.585 79.2354 193.452 78.1018 192.053 78.1018C190.655 78.1018 189.522 79.2354 189.522 80.6335V84.0523C189.522 85.2622 188.537 86.2465 187.328 86.2465H176.526C175.316 86.2465 174.331 85.2622 174.331 84.0523V17.8907C174.331 16.6808 175.316 15.6965 176.526 15.6965H187.328C188.537 15.6965 189.522 16.6808 189.522 17.8907V69.7061C189.522 71.1042 190.655 72.2378 192.053 72.2378C193.452 72.2378 194.585 71.1042 194.585 69.7061V67.0056H198.805C202.062 67.0056 204.712 64.3554 204.712 61.0983V40.8447C204.712 37.5876 202.062 34.9374 198.805 34.9374ZM37.7886 61.9422C37.3235 61.9422 36.9447 61.5634 36.9447 61.0983V40.8447C36.9447 40.3796 37.3235 40.0008 37.7886 40.0008H42.0081V61.9422H37.7886ZM90.6167 91.985C90.6167 94.6838 88.4209 96.8796 85.7221 96.8796H72.2197C69.5209 96.8796 67.3251 94.6838 67.3251 91.985V9.95801C67.3251 7.25922 69.5209 5.06339 72.2197 5.06339H85.7221C88.4209 5.06339 90.6167 7.25922 90.6167 9.95801V91.985ZM169.268 91.985C169.268 94.6838 167.072 96.8796 164.373 96.8796H150.871C148.172 96.8796 145.976 94.6838 145.976 91.985V9.95801C145.976 7.25922 148.172 5.06339 150.871 5.06339H164.373C167.072 5.06339 169.268 7.25922 169.268 9.95801V91.985ZM199.648 61.0983C199.648 61.5634 199.27 61.9422 198.805 61.9422H194.585V40.0008H198.805C199.27 40.0008 199.648 40.3796 199.648 40.8447V61.0983Z" fill="black"/>
</svg>
