<svg width="352" height="119" viewBox="0 0 352 119" fill="none" xmlns="http://www.w3.org/2000/svg">
<path d="M62.9703 86.0462L53.0703 71.7662H52.4837H42.1437V86.0462H30.2637V34.7847H52.4837C57.0303 34.7847 60.966 35.5413 64.2903 37.0548C67.6637 38.5683 70.2547 40.7163 72.0637 43.4991C73.8726 46.2819 74.777 49.5773 74.777 53.3853C74.777 57.1933 73.8481 60.4887 71.9903 63.2714C70.1814 66.0053 67.5903 68.1047 64.217 69.5693L75.7303 86.0462H62.9703ZM62.7503 53.3853C62.7503 50.5049 61.8214 48.308 59.9637 46.7945C58.106 45.2323 55.3926 44.4511 51.8237 44.4511H42.1437V62.3194H51.8237C55.3926 62.3194 58.106 61.5382 59.9637 59.976C61.8214 58.4138 62.7503 56.2169 62.7503 53.3853ZM102.156 86.632C98.0006 86.632 94.2606 85.7776 90.9362 84.069C87.6606 82.3114 85.0939 79.8948 83.2362 76.8191C81.3783 73.7434 80.4495 70.2527 80.4495 66.3471C80.4495 62.4415 81.3783 58.9508 83.2362 55.8751C85.0939 52.7994 87.6606 50.4072 90.9362 48.6985C94.2606 46.941 98.0006 46.0622 102.156 46.0622C106.312 46.0622 110.027 46.941 113.303 48.6985C116.578 50.4072 119.145 52.7994 121.003 55.8751C122.861 58.9508 123.79 62.4415 123.79 66.3471C123.79 70.2527 122.861 73.7434 121.003 76.8191C119.145 79.8948 116.578 82.3114 113.303 84.069C110.027 85.7776 106.312 86.632 102.156 86.632ZM102.156 77.2585C105.09 77.2585 107.485 76.2821 109.343 74.3293C111.25 72.3277 112.203 69.6669 112.203 66.3471C112.203 63.0274 111.25 60.3911 109.343 58.4382C107.485 56.4366 105.09 55.4357 102.156 55.4357C99.2229 55.4357 96.8029 56.4366 94.8962 58.4382C92.9895 60.3911 92.0362 63.0274 92.0362 66.3471C92.0362 69.6669 92.9895 72.3277 94.8962 74.3293C96.8029 76.2821 99.2229 77.2585 102.156 77.2585ZM171.183 46.648V86.0462H160.33V81.3594C158.814 83.0681 157.005 84.3862 154.903 85.3139C152.801 86.1926 150.527 86.632 148.083 86.632C142.901 86.632 138.794 85.1431 135.763 82.165C132.732 79.1868 131.216 74.7687 131.216 68.9102V46.648H142.656V67.2259C142.656 73.5726 145.321 76.7459 150.65 76.7459C153.387 76.7459 155.587 75.8671 157.25 74.1096C158.912 72.3032 159.743 69.6425 159.743 66.1274V46.648H171.183ZM207.227 84.1422C206.103 84.9721 204.71 85.6068 203.047 86.0462C201.434 86.4367 199.723 86.632 197.914 86.632C193.22 86.632 189.579 85.436 186.987 83.0437C184.446 80.6515 183.174 77.1364 183.174 72.4985V56.3145H177.088V47.5268H183.174V37.9336H194.614V47.5268H204.44V56.3145H194.614V72.352C194.614 74.012 195.03 75.3056 195.86 76.2333C196.74 77.112 197.963 77.5514 199.527 77.5514C201.337 77.5514 202.877 77.0632 204.147 76.0868L207.227 84.1422ZM213.649 46.648H225.089V86.0462H213.649V46.648ZM219.369 41.1557C217.268 41.1557 215.556 40.5455 214.236 39.325C212.916 38.1044 212.256 36.5911 212.256 34.7847C212.256 32.9782 212.916 31.4649 214.236 30.2443C215.556 29.0238 217.268 28.4136 219.369 28.4136C221.472 28.4136 223.183 28.9994 224.503 30.1711C225.823 31.3428 226.483 32.8074 226.483 34.565C226.483 36.469 225.823 38.0557 224.503 39.325C223.183 40.5455 221.472 41.1557 219.369 41.1557ZM259.688 46.0622C264.576 46.0622 268.512 47.5268 271.495 50.456C274.525 53.3853 276.041 57.7302 276.041 63.4911V86.0462H264.601V65.2486C264.601 62.1241 263.916 59.8052 262.548 58.2917C261.178 56.7295 259.198 55.9483 256.608 55.9483C253.722 55.9483 251.425 56.8515 249.715 58.6579C248.002 60.4154 247.148 63.0517 247.148 66.5668V86.0462H235.708V46.648H246.635V51.2616C248.149 49.6016 250.032 48.3323 252.281 47.4536C254.529 46.5259 256.998 46.0622 259.688 46.0622ZM325.486 66.4936C325.486 66.64 325.413 67.6653 325.266 69.5693H295.42C295.957 72.0102 297.229 73.9388 299.233 75.3545C301.237 76.7702 303.73 77.4782 306.713 77.4782C308.766 77.4782 310.576 77.1853 312.14 76.5994C313.753 75.9647 315.243 74.9883 316.613 73.6702L322.7 80.261C318.983 84.5083 313.557 86.632 306.42 86.632C301.97 86.632 298.036 85.7776 294.613 84.069C291.19 82.3114 288.55 79.8948 286.693 76.8191C284.836 73.7434 283.906 70.2527 283.906 66.3471C283.906 62.4902 284.81 59.024 286.62 55.9483C288.477 52.8238 290.996 50.4072 294.173 48.6985C297.4 46.941 300.993 46.0622 304.953 46.0622C308.816 46.0622 312.31 46.8921 315.44 48.552C318.569 50.212 321.013 52.6041 322.773 55.7287C324.582 58.8043 325.486 62.3927 325.486 66.4936ZM305.026 54.7034C302.436 54.7034 300.26 55.4357 298.5 56.9003C296.74 58.365 295.663 60.3665 295.273 62.9053H314.706C314.316 60.4154 313.24 58.4382 311.48 56.9736C309.72 55.4601 307.569 54.7034 305.026 54.7034Z" fill="#353766"/>
<path d="M219.083 42.1076C223.64 42.1076 227.333 38.8289 227.333 34.7845C227.333 30.7401 223.64 27.4614 219.083 27.4614C214.527 27.4614 210.833 30.7401 210.833 34.7845C210.833 38.8289 214.527 42.1076 219.083 42.1076Z" fill="#EB5254"/>
</svg>
